<svg id="e9mdxanXHQt1" xmlns="http://www.w3.org/2000/svg" xmlns:xlink="http://www.w3.org/1999/xlink" viewBox="0 0 900 900" shape-rendering="geometricPrecision" text-rendering="geometricPrecision"><g clip-rule="evenodd"><ellipse rx="433.23534" ry="405.002502" transform="translate(448.23534 432.077228)" fill="#fff" stroke-width="0"/><path d="M550,207c52-79,154-97,225-36c25,22,41,52,41,86c0,129-180,271-266,344-20-17-45-37-70-60-59,69-136,130-183,171C207,635,30,497,30,368c0-34,16-64,42-86c69-60,168-44,221,30-6-18-10-37-10-55c0-34,16-64,42-86c71-61,173-43,225,36ZM507,376c-3-48-54-84-113-80-40,3-101,32-96,82c46-59,156-39,162,33c8,102-98,168-147,241c59-55,202-179,194-276ZM760,265c-3-48-54-84-113-79-42,3-102,32-96,81c15-20,35-31,66-33c49-4,91,27,94,68c7,105-107,181-145,239c60-57,201-179,194-276Z" transform="translate(13 48)" clip-rule="evenodd" fill="#f62b2b"/></g></svg>
